<mxfile host="app.diagrams.net" modified="2024-12-02T17:23:59.093Z" agent="Mozilla/5.0 (Windows NT 10.0; Win64; x64) AppleWebKit/537.36 (KHTML, like Gecko) Chrome/130.0.0.0 Safari/537.36" etag="X59VEzu0PvKcz9a529Ns" version="24.4.4" type="device">
  <diagram id="C5RBs43oDa-KdzZeNtuy" name="Page-1">
    <mxGraphModel dx="1006" dy="531" grid="1" gridSize="10" guides="1" tooltips="1" connect="1" arrows="1" fold="1" page="1" pageScale="1" pageWidth="827" pageHeight="1169" math="0" shadow="0">
      <root>
        <mxCell id="WIyWlLk6GJQsqaUBKTNV-0" />
        <mxCell id="WIyWlLk6GJQsqaUBKTNV-1" parent="WIyWlLk6GJQsqaUBKTNV-0" />
        <mxCell id="DyFWy8hdvRmp-U0JkNWq-3" value="" style="edgeStyle=orthogonalEdgeStyle;rounded=0;orthogonalLoop=1;jettySize=auto;html=1;" edge="1" parent="WIyWlLk6GJQsqaUBKTNV-1" source="DyFWy8hdvRmp-U0JkNWq-1" target="DyFWy8hdvRmp-U0JkNWq-2">
          <mxGeometry relative="1" as="geometry" />
        </mxCell>
        <mxCell id="DyFWy8hdvRmp-U0JkNWq-1" value="Start" style="ellipse;whiteSpace=wrap;html=1;" vertex="1" parent="WIyWlLk6GJQsqaUBKTNV-1">
          <mxGeometry x="310" y="10" width="120" height="50" as="geometry" />
        </mxCell>
        <mxCell id="DyFWy8hdvRmp-U0JkNWq-5" value="" style="edgeStyle=orthogonalEdgeStyle;rounded=0;orthogonalLoop=1;jettySize=auto;html=1;" edge="1" parent="WIyWlLk6GJQsqaUBKTNV-1" source="DyFWy8hdvRmp-U0JkNWq-2" target="DyFWy8hdvRmp-U0JkNWq-4">
          <mxGeometry relative="1" as="geometry" />
        </mxCell>
        <mxCell id="DyFWy8hdvRmp-U0JkNWq-2" value="Nhập số nguyên n" style="shape=parallelogram;perimeter=parallelogramPerimeter;whiteSpace=wrap;html=1;fixedSize=1;" vertex="1" parent="WIyWlLk6GJQsqaUBKTNV-1">
          <mxGeometry x="270" y="100" width="200" height="50" as="geometry" />
        </mxCell>
        <mxCell id="DyFWy8hdvRmp-U0JkNWq-7" value="" style="edgeStyle=orthogonalEdgeStyle;rounded=0;orthogonalLoop=1;jettySize=auto;html=1;" edge="1" parent="WIyWlLk6GJQsqaUBKTNV-1" source="DyFWy8hdvRmp-U0JkNWq-4" target="DyFWy8hdvRmp-U0JkNWq-6">
          <mxGeometry relative="1" as="geometry" />
        </mxCell>
        <mxCell id="DyFWy8hdvRmp-U0JkNWq-10" value="" style="edgeStyle=orthogonalEdgeStyle;rounded=0;orthogonalLoop=1;jettySize=auto;html=1;" edge="1" parent="WIyWlLk6GJQsqaUBKTNV-1" source="DyFWy8hdvRmp-U0JkNWq-4" target="DyFWy8hdvRmp-U0JkNWq-9">
          <mxGeometry relative="1" as="geometry" />
        </mxCell>
        <mxCell id="DyFWy8hdvRmp-U0JkNWq-4" value="Kiểm tra n % 2 == 0?" style="rhombus;whiteSpace=wrap;html=1;" vertex="1" parent="WIyWlLk6GJQsqaUBKTNV-1">
          <mxGeometry x="300" y="190" width="140" height="60" as="geometry" />
        </mxCell>
        <mxCell id="DyFWy8hdvRmp-U0JkNWq-26" style="edgeStyle=orthogonalEdgeStyle;rounded=0;orthogonalLoop=1;jettySize=auto;html=1;exitX=0.5;exitY=1;exitDx=0;exitDy=0;entryX=1;entryY=0.5;entryDx=0;entryDy=0;" edge="1" parent="WIyWlLk6GJQsqaUBKTNV-1" source="DyFWy8hdvRmp-U0JkNWq-6" target="DyFWy8hdvRmp-U0JkNWq-11">
          <mxGeometry relative="1" as="geometry" />
        </mxCell>
        <mxCell id="DyFWy8hdvRmp-U0JkNWq-6" value="Lẻ" style="shape=parallelogram;perimeter=parallelogramPerimeter;whiteSpace=wrap;html=1;fixedSize=1;" vertex="1" parent="WIyWlLk6GJQsqaUBKTNV-1">
          <mxGeometry x="490" y="190" width="120" height="60" as="geometry" />
        </mxCell>
        <mxCell id="DyFWy8hdvRmp-U0JkNWq-8" value="Sai" style="text;html=1;align=center;verticalAlign=middle;resizable=0;points=[];autosize=1;strokeColor=none;fillColor=none;" vertex="1" parent="WIyWlLk6GJQsqaUBKTNV-1">
          <mxGeometry x="440" y="188" width="40" height="30" as="geometry" />
        </mxCell>
        <mxCell id="DyFWy8hdvRmp-U0JkNWq-12" value="" style="edgeStyle=orthogonalEdgeStyle;rounded=0;orthogonalLoop=1;jettySize=auto;html=1;" edge="1" parent="WIyWlLk6GJQsqaUBKTNV-1" source="DyFWy8hdvRmp-U0JkNWq-9" target="DyFWy8hdvRmp-U0JkNWq-11">
          <mxGeometry relative="1" as="geometry" />
        </mxCell>
        <mxCell id="DyFWy8hdvRmp-U0JkNWq-9" value="Chẵn" style="shape=parallelogram;perimeter=parallelogramPerimeter;whiteSpace=wrap;html=1;fixedSize=1;" vertex="1" parent="WIyWlLk6GJQsqaUBKTNV-1">
          <mxGeometry x="310" y="290" width="120" height="60" as="geometry" />
        </mxCell>
        <mxCell id="DyFWy8hdvRmp-U0JkNWq-11" value="End" style="ellipse;whiteSpace=wrap;html=1;" vertex="1" parent="WIyWlLk6GJQsqaUBKTNV-1">
          <mxGeometry x="310" y="400" width="120" height="50" as="geometry" />
        </mxCell>
      </root>
    </mxGraphModel>
  </diagram>
</mxfile>
